# xmcd CD database file
#
# Track frame offsets:
#	150
#	21501
#	32716
#	52441
#	62599
#	79579
#	99005
#	122154
#	134898
#	146770
#	162007
#	177598
#	207038
#
# Disc length: 3319 seconds
#
# Revision: 1
# Processed by: cddbd v1.5.2PL0 Copyright (c) Steve Scherf et al.
# Submitted via: CDex 1.51
#
DISCID=bd0cf50d
DTITLE=Cyro Baptista - Beat The Donkey
DYEAR=2002
DGENRE=Jazz
TTITLE0=Caranguejo Estrela Brilhante (The Crab And The Shining Star)
TTITLE1=Sapo And The Prince
TTITLE2=Cyrandeiro
TTITLE3=Sweet Cuica
TTITLE4=O Canto Da Ema
TTITLE5=Parar De Fumar
TTITLE6=Rio De Jakarta
TTITLE7=Tapping The Stars
TTITLE8=Anastacia
TTITLE9=Mr. Bugaloo
TTITLE10=Ama
TTITLE11=Funk I Live At La Plaza [Live]
TTITLE12=data
EXTD=YEAR: 2002
EXTT0=
EXTT1=
EXTT2=
EXTT3=
EXTT4=
EXTT5=
EXTT6=
EXTT7=
EXTT8=
EXTT9=
EXTT10=
EXTT11=
EXTT12=
PLAYORDER=
